<svg width="295" height="291" viewBox="0 0 295 291" fill="none" xmlns="http://www.w3.org/2000/svg">
<rect width="294.178" height="290.629" fill="url(#paint0_linear_12994_46788)"/>
<g filter="url(#filter0_di_12994_46788)">
<rect x="12.269" y="11.3252" width="269.64" height="155.722" rx="11.3252" fill="#F7F7F7"/>
</g>
<path d="M21.2643 184.926C21.1928 184.291 20.8979 183.8 20.3796 183.451C19.8612 183.098 19.2088 182.922 18.4223 182.922C17.8593 182.922 17.3722 183.011 16.9611 183.19C16.55 183.364 16.2305 183.605 16.0026 183.914C15.7791 184.217 15.6674 184.564 15.6674 184.953C15.6674 185.279 15.7434 185.56 15.8953 185.797C16.0517 186.034 16.255 186.233 16.5053 186.394C16.76 186.55 17.0326 186.682 17.323 186.789C17.6135 186.892 17.8928 186.977 18.1609 187.044L19.5015 187.392C19.9394 187.5 20.3885 187.645 20.8488 187.828C21.309 188.011 21.7358 188.253 22.129 188.552C22.5223 188.851 22.8395 189.222 23.0808 189.665C23.3266 190.107 23.4495 190.637 23.4495 191.253C23.4495 192.031 23.2484 192.721 22.8462 193.324C22.4485 193.928 21.8698 194.404 21.1102 194.752C20.355 195.101 19.4412 195.275 18.3687 195.275C17.3409 195.275 16.4517 195.112 15.7009 194.786C14.9502 194.459 14.3626 193.997 13.9381 193.398C13.5135 192.795 13.2789 192.08 13.2343 191.253H15.3122C15.3524 191.749 15.5132 192.163 15.7948 192.493C16.0808 192.82 16.445 193.063 16.8873 193.224C17.3342 193.38 17.8235 193.459 18.3553 193.459C18.9407 193.459 19.4613 193.367 19.9171 193.184C20.3773 192.996 20.7393 192.737 21.0029 192.406C21.2666 192.071 21.3984 191.68 21.3984 191.233C21.3984 190.827 21.2822 190.494 21.0498 190.234C20.8219 189.975 20.5114 189.761 20.1181 189.591C19.7294 189.421 19.2892 189.271 18.7977 189.142L17.1756 188.699C16.0763 188.4 15.2049 187.96 14.5614 187.379C13.9224 186.798 13.6029 186.029 13.6029 185.073C13.6029 184.282 13.8174 183.592 14.2464 183.002C14.6754 182.412 15.2563 181.954 15.9892 181.628C16.722 181.297 17.5487 181.132 18.4692 181.132C19.3987 181.132 20.2187 181.295 20.9292 181.621C21.6442 181.947 22.2072 182.397 22.6183 182.968C23.0294 183.536 23.2439 184.188 23.2618 184.926H21.2643ZM30.1004 195.255C29.1352 195.255 28.2929 195.034 27.5735 194.591C26.854 194.149 26.2954 193.53 25.8977 192.735C25.5 191.939 25.3012 191.01 25.3012 189.946C25.3012 188.878 25.5 187.944 25.8977 187.144C26.2954 186.345 26.854 185.723 27.5735 185.281C28.2929 184.839 29.1352 184.617 30.1004 184.617C31.0657 184.617 31.908 184.839 32.6274 185.281C33.3469 185.723 33.9055 186.345 34.3032 187.144C34.7009 187.944 34.8997 188.878 34.8997 189.946C34.8997 191.01 34.7009 191.939 34.3032 192.735C33.9055 193.53 33.3469 194.149 32.6274 194.591C31.908 195.034 31.0657 195.255 30.1004 195.255ZM30.1071 193.572C30.7328 193.572 31.2511 193.407 31.6622 193.076C32.0733 192.746 32.3772 192.306 32.5738 191.756C32.7749 191.206 32.8754 190.601 32.8754 189.94C32.8754 189.283 32.7749 188.679 32.5738 188.13C32.3772 187.576 32.0733 187.131 31.6622 186.796C31.2511 186.461 30.7328 186.293 30.1071 186.293C29.4771 186.293 28.9542 186.461 28.5387 186.796C28.1276 187.131 27.8215 187.576 27.6204 188.13C27.4238 188.679 27.3254 189.283 27.3254 189.94C27.3254 190.601 27.4238 191.206 27.6204 191.756C27.8215 192.306 28.1276 192.746 28.5387 193.076C28.9542 193.407 29.4771 193.572 30.1071 193.572ZM41.4736 195.255C40.4771 195.255 39.6191 195.029 38.8997 194.578C38.1847 194.122 37.6351 193.494 37.2508 192.694C36.8665 191.895 36.6743 190.978 36.6743 189.946C36.6743 188.901 36.8709 187.978 37.2642 187.178C37.6574 186.374 38.2115 185.746 38.9265 185.294C39.6415 184.843 40.4838 184.617 41.4535 184.617C42.2355 184.617 42.9326 184.763 43.5448 185.053C44.157 185.339 44.6508 185.741 45.0261 186.26C45.406 186.778 45.6316 187.383 45.7031 188.076H43.7526C43.6453 187.593 43.3996 187.178 43.0153 186.829C42.6354 186.481 42.126 186.307 41.487 186.307C40.9284 186.307 40.4391 186.454 40.0191 186.749C39.6035 187.039 39.2795 187.455 39.0471 187.996C38.8148 188.532 38.6986 189.166 38.6986 189.899C38.6986 190.65 38.8125 191.298 39.0404 191.843C39.2683 192.388 39.5901 192.811 40.0057 193.11C40.4257 193.409 40.9195 193.559 41.487 193.559C41.8668 193.559 42.2109 193.49 42.5193 193.351C42.8321 193.208 43.0935 193.005 43.3035 192.741C43.518 192.478 43.6677 192.16 43.7526 191.79H45.7031C45.6316 192.455 45.4149 193.05 45.053 193.572C44.691 194.095 44.2061 194.506 43.5984 194.806C42.9952 195.105 42.2869 195.255 41.4736 195.255ZM47.8464 195.047V184.751H49.8506V195.047H47.8464ZM48.8585 183.163C48.51 183.163 48.2106 183.047 47.9603 182.814C47.7146 182.577 47.5917 182.296 47.5917 181.97C47.5917 181.639 47.7146 181.358 47.9603 181.125C48.2106 180.888 48.51 180.77 48.8585 180.77C49.2071 180.77 49.5042 180.888 49.75 181.125C50.0003 181.358 50.1254 181.639 50.1254 181.97C50.1254 182.296 50.0003 182.577 49.75 182.814C49.5042 183.047 49.2071 183.163 48.8585 183.163ZM55.543 195.275C54.8906 195.275 54.3007 195.154 53.7734 194.913C53.2461 194.667 52.8283 194.312 52.52 193.847C52.2161 193.383 52.0642 192.813 52.0642 192.138C52.0642 191.557 52.1759 191.079 52.3993 190.704C52.6228 190.328 52.9244 190.031 53.3042 189.812C53.6841 189.593 54.1086 189.428 54.5778 189.316C55.047 189.204 55.5251 189.12 56.0122 189.061C56.6289 188.99 57.1293 188.932 57.5136 188.887C57.8979 188.838 58.1772 188.76 58.3515 188.653C58.5258 188.545 58.6129 188.371 58.6129 188.13V188.083C58.6129 187.497 58.4476 187.044 58.1169 186.722C57.7907 186.4 57.3036 186.24 56.6557 186.24C55.9809 186.24 55.4492 186.389 55.0604 186.689C54.6761 186.984 54.4102 187.312 54.2627 187.674L52.3792 187.245C52.6027 186.619 52.9289 186.114 53.3578 185.73C53.7913 185.341 54.2896 185.06 54.8526 184.886C55.4156 184.707 56.0077 184.617 56.6289 184.617C57.04 184.617 57.4757 184.667 57.9359 184.765C58.4007 184.859 58.8341 185.033 59.2363 185.288C59.6429 185.542 59.9758 185.907 60.235 186.38C60.4942 186.849 60.6238 187.459 60.6238 188.21V195.047H58.6665V193.64H58.5861C58.4565 193.899 58.2621 194.153 58.003 194.404C57.7438 194.654 57.4109 194.862 57.0042 195.027C56.5976 195.192 56.1105 195.275 55.543 195.275ZM55.9787 193.666C56.5328 193.666 57.0065 193.557 57.3997 193.338C57.7974 193.119 58.099 192.833 58.3046 192.48C58.5146 192.122 58.6196 191.74 58.6196 191.334V190.007C58.5481 190.078 58.4096 190.145 58.204 190.208C58.003 190.266 57.7728 190.317 57.5136 190.362C57.2545 190.402 57.002 190.44 56.7562 190.476C56.5104 190.507 56.3049 190.534 56.1396 190.556C55.7508 190.605 55.3955 190.688 55.0738 190.804C54.7565 190.92 54.5018 191.088 54.3097 191.307C54.122 191.521 54.0281 191.807 54.0281 192.165C54.0281 192.661 54.2114 193.036 54.5778 193.291C54.9442 193.541 55.4112 193.666 55.9787 193.666ZM65.2974 181.32V195.047H63.2932V181.32H65.2974ZM73.1499 181.32H75.6634L80.0337 191.991H80.1946L84.5649 181.32H87.0785V195.047H85.1078V185.113H84.9805L80.9319 195.027H79.2964L75.2479 185.107H75.1205V195.047H73.1499V181.32ZM94.3662 195.255C93.3518 195.255 92.4782 195.038 91.7454 194.605C91.017 194.167 90.454 193.552 90.0563 192.761C89.663 191.966 89.4664 191.034 89.4664 189.966C89.4664 188.912 89.663 187.982 90.0563 187.178C90.454 186.374 91.0081 185.746 91.7186 185.294C92.4335 184.843 93.2692 184.617 94.2255 184.617C94.8064 184.617 95.3694 184.713 95.9146 184.906C96.4598 185.098 96.9491 185.399 97.3825 185.811C97.816 186.222 98.1578 186.756 98.4081 187.413C98.6583 188.065 98.7834 188.858 98.7834 189.792V190.503H90.5992V189.001H96.8195C96.8195 188.474 96.7122 188.007 96.4977 187.6C96.2832 187.189 95.9816 186.865 95.5929 186.628C95.2086 186.391 94.7572 186.273 94.2389 186.273C93.6758 186.273 93.1843 186.412 92.7642 186.689C92.3486 186.961 92.0269 187.319 91.799 187.761C91.5756 188.199 91.4639 188.675 91.4639 189.189V190.362C91.4639 191.05 91.5845 191.635 91.8258 192.118C92.0716 192.601 92.4134 192.969 92.8514 193.224C93.2893 193.474 93.8009 193.599 94.3863 193.599C94.7662 193.599 95.1125 193.546 95.4253 193.438C95.7381 193.327 96.0084 193.161 96.2363 192.942C96.4642 192.723 96.6385 192.453 96.7592 192.131L98.6561 192.473C98.5041 193.032 98.2316 193.521 97.8383 193.941C97.4496 194.357 96.9602 194.681 96.3704 194.913C95.785 195.141 95.1169 195.255 94.3662 195.255ZM104.861 195.248C104.03 195.248 103.288 195.036 102.636 194.611C101.988 194.182 101.479 193.572 101.108 192.782C100.741 191.986 100.558 191.032 100.558 189.919C100.558 188.807 100.743 187.855 101.114 187.064C101.49 186.273 102.004 185.668 102.656 185.247C103.308 184.827 104.048 184.617 104.875 184.617C105.514 184.617 106.028 184.725 106.416 184.939C106.81 185.149 107.113 185.395 107.328 185.676C107.547 185.958 107.717 186.206 107.837 186.42H107.958V181.32H109.962V195.047H108.005V193.445H107.837C107.717 193.664 107.542 193.914 107.315 194.196C107.091 194.477 106.783 194.723 106.39 194.933C105.996 195.143 105.487 195.248 104.861 195.248ZM105.304 193.539C105.88 193.539 106.367 193.387 106.765 193.083C107.167 192.775 107.471 192.348 107.677 191.803C107.887 191.258 107.992 190.623 107.992 189.899C107.992 189.184 107.889 188.559 107.683 188.022C107.478 187.486 107.176 187.068 106.778 186.769C106.381 186.47 105.889 186.32 105.304 186.32C104.7 186.32 104.198 186.476 103.796 186.789C103.393 187.102 103.089 187.529 102.884 188.069C102.683 188.61 102.582 189.22 102.582 189.899C102.582 190.587 102.685 191.206 102.891 191.756C103.096 192.306 103.4 192.741 103.802 193.063C104.209 193.38 104.709 193.539 105.304 193.539ZM112.823 195.047V184.751H114.827V195.047H112.823ZM113.835 183.163C113.486 183.163 113.187 183.047 112.937 182.814C112.691 182.577 112.568 182.296 112.568 181.97C112.568 181.639 112.691 181.358 112.937 181.125C113.187 180.888 113.486 180.77 113.835 180.77C114.183 180.77 114.481 180.888 114.726 181.125C114.977 181.358 115.102 181.639 115.102 181.97C115.102 182.296 114.977 182.577 114.726 182.814C114.481 183.047 114.183 183.163 113.835 183.163ZM120.519 195.275C119.867 195.275 119.277 195.154 118.75 194.913C118.222 194.667 117.805 194.312 117.496 193.847C117.192 193.383 117.04 192.813 117.04 192.138C117.04 191.557 117.152 191.079 117.376 190.704C117.599 190.328 117.901 190.031 118.281 189.812C118.66 189.593 119.085 189.428 119.554 189.316C120.023 189.204 120.501 189.12 120.988 189.061C121.605 188.99 122.106 188.932 122.49 188.887C122.874 188.838 123.154 188.76 123.328 188.653C123.502 188.545 123.589 188.371 123.589 188.13V188.083C123.589 187.497 123.424 187.044 123.093 186.722C122.767 186.4 122.28 186.24 121.632 186.24C120.957 186.24 120.425 186.389 120.037 186.689C119.652 186.984 119.386 187.312 119.239 187.674L117.356 187.245C117.579 186.619 117.905 186.114 118.334 185.73C118.768 185.341 119.266 185.06 119.829 184.886C120.392 184.707 120.984 184.617 121.605 184.617C122.016 184.617 122.452 184.667 122.912 184.765C123.377 184.859 123.81 185.033 124.213 185.288C124.619 185.542 124.952 185.907 125.211 186.38C125.47 186.849 125.6 187.459 125.6 188.21V195.047H123.643V193.64H123.562C123.433 193.899 123.238 194.153 122.979 194.404C122.72 194.654 122.387 194.862 121.981 195.027C121.574 195.192 121.087 195.275 120.519 195.275ZM120.955 193.666C121.509 193.666 121.983 193.557 122.376 193.338C122.774 193.119 123.075 192.833 123.281 192.48C123.491 192.122 123.596 191.74 123.596 191.334V190.007C123.524 190.078 123.386 190.145 123.18 190.208C122.979 190.266 122.749 190.317 122.49 190.362C122.231 190.402 121.978 190.44 121.733 190.476C121.487 190.507 121.281 190.534 121.116 190.556C120.727 190.605 120.372 190.688 120.05 190.804C119.733 190.92 119.478 191.088 119.286 191.307C119.098 191.521 119.004 191.807 119.004 192.165C119.004 192.661 119.188 193.036 119.554 193.291C119.92 193.541 120.387 193.666 120.955 193.666ZM133.426 181.32H135.939L140.31 191.991H140.47L144.841 181.32H147.354V195.047H145.384V185.113H145.256L141.208 195.027H139.572L135.524 185.107H135.396V195.047H133.426V181.32ZM154.542 195.255C153.576 195.255 152.734 195.034 152.015 194.591C151.295 194.149 150.737 193.53 150.339 192.735C149.941 191.939 149.742 191.01 149.742 189.946C149.742 188.878 149.941 187.944 150.339 187.144C150.737 186.345 151.295 185.723 152.015 185.281C152.734 184.839 153.576 184.617 154.542 184.617C155.507 184.617 156.349 184.839 157.069 185.281C157.788 185.723 158.347 186.345 158.744 187.144C159.142 187.944 159.341 188.878 159.341 189.946C159.341 191.01 159.142 191.939 158.744 192.735C158.347 193.53 157.788 194.149 157.069 194.591C156.349 195.034 155.507 195.255 154.542 195.255ZM154.548 193.572C155.174 193.572 155.692 193.407 156.103 193.076C156.514 192.746 156.818 192.306 157.015 191.756C157.216 191.206 157.317 190.601 157.317 189.94C157.317 189.283 157.216 188.679 157.015 188.13C156.818 187.576 156.514 187.131 156.103 186.796C155.692 186.461 155.174 186.293 154.548 186.293C153.918 186.293 153.395 186.461 152.98 186.796C152.569 187.131 152.263 187.576 152.061 188.13C151.865 188.679 151.767 189.283 151.767 189.94C151.767 190.601 151.865 191.206 152.061 191.756C152.263 192.306 152.569 192.746 152.98 193.076C153.395 193.407 153.918 193.572 154.548 193.572ZM163.582 188.934V195.047H161.578V184.751H163.502V186.427H163.629C163.866 185.882 164.237 185.444 164.742 185.113C165.251 184.783 165.892 184.617 166.665 184.617C167.367 184.617 167.981 184.765 168.509 185.06C169.036 185.35 169.445 185.784 169.735 186.36C170.026 186.937 170.171 187.649 170.171 188.498V195.047H168.167V188.74C168.167 187.993 167.972 187.41 167.584 186.99C167.195 186.566 166.661 186.353 165.982 186.353C165.517 186.353 165.104 186.454 164.742 186.655C164.384 186.856 164.1 187.151 163.89 187.54C163.685 187.924 163.582 188.389 163.582 188.934ZM172.859 195.047V184.751H174.863V195.047H172.859ZM173.871 183.163C173.522 183.163 173.223 183.047 172.973 182.814C172.727 182.577 172.604 182.296 172.604 181.97C172.604 181.639 172.727 181.358 172.973 181.125C173.223 180.888 173.522 180.77 173.871 180.77C174.22 180.77 174.517 180.888 174.763 181.125C175.013 181.358 175.138 181.639 175.138 181.97C175.138 182.296 175.013 182.577 174.763 182.814C174.517 183.047 174.22 183.163 173.871 183.163ZM182.365 184.751V186.36H176.742V184.751H182.365ZM178.25 182.285H180.254V192.024C180.254 192.413 180.312 192.706 180.428 192.902C180.544 193.094 180.694 193.226 180.877 193.298C181.065 193.365 181.268 193.398 181.487 193.398C181.648 193.398 181.789 193.387 181.91 193.365C182.03 193.342 182.124 193.324 182.191 193.311L182.553 194.967C182.437 195.011 182.271 195.056 182.057 195.101C181.842 195.15 181.574 195.177 181.253 195.181C180.725 195.19 180.234 195.096 179.778 194.9C179.322 194.703 178.954 194.399 178.672 193.988C178.39 193.577 178.25 193.061 178.25 192.44V182.285ZM188.808 195.255C187.843 195.255 187.001 195.034 186.281 194.591C185.562 194.149 185.003 193.53 184.606 192.735C184.208 191.939 184.009 191.01 184.009 189.946C184.009 188.878 184.208 187.944 184.606 187.144C185.003 186.345 185.562 185.723 186.281 185.281C187.001 184.839 187.843 184.617 188.808 184.617C189.774 184.617 190.616 184.839 191.335 185.281C192.055 185.723 192.613 186.345 193.011 187.144C193.409 187.944 193.608 188.878 193.608 189.946C193.608 191.01 193.409 191.939 193.011 192.735C192.613 193.53 192.055 194.149 191.335 194.591C190.616 195.034 189.774 195.255 188.808 195.255ZM188.815 193.572C189.441 193.572 189.959 193.407 190.37 193.076C190.781 192.746 191.085 192.306 191.282 191.756C191.483 191.206 191.583 190.601 191.583 189.94C191.583 189.283 191.483 188.679 191.282 188.13C191.085 187.576 190.781 187.131 190.37 186.796C189.959 186.461 189.441 186.293 188.815 186.293C188.185 186.293 187.662 186.461 187.247 186.796C186.836 187.131 186.529 187.576 186.328 188.13C186.132 188.679 186.033 189.283 186.033 189.94C186.033 190.601 186.132 191.206 186.328 191.756C186.529 192.306 186.836 192.746 187.247 193.076C187.662 193.407 188.185 193.572 188.815 193.572ZM195.845 195.047V184.751H197.782V186.387H197.889C198.077 185.833 198.408 185.397 198.881 185.08C199.359 184.758 199.9 184.597 200.503 184.597C200.628 184.597 200.776 184.602 200.946 184.611C201.12 184.62 201.256 184.631 201.355 184.644V186.561C201.274 186.539 201.131 186.514 200.926 186.488C200.72 186.456 200.515 186.441 200.309 186.441C199.835 186.441 199.413 186.541 199.042 186.742C198.676 186.939 198.385 187.214 198.171 187.567C197.956 187.915 197.849 188.313 197.849 188.76V195.047H195.845Z" fill="black"/>
<g filter="url(#filter1_di_12994_46788)">
<rect x="12.269" y="206.047" width="265" height="12" rx="6" fill="black" fill-opacity="0.06" shape-rendering="crispEdges"/>
</g>
<g filter="url(#filter2_di_12994_46788)">
<rect x="12.269" y="226.047" width="212" height="12" rx="6" fill="black" fill-opacity="0.06" shape-rendering="crispEdges"/>
</g>
<rect x="53.7944" y="52.851" width="49.076" height="73.614" rx="4.71884" fill="#FEFEFE"/>
<circle cx="66.5344" cy="65.592" r="6.1345" fill="#BDBDBD"/>
<rect x="76.444" y="60.8731" width="20.7629" height="1.88754" rx="0.943769" fill="#BDBDBD"/>
<rect x="76.444" y="64.6482" width="15.1003" height="1.88754" rx="0.943769" fill="#BDBDBD"/>
<rect x="76.444" y="68.4233" width="11.3252" height="1.88754" rx="0.943769" fill="#BDBDBD"/>
<rect x="61.3451" y="80.2204" width="20.7629" height="1.88754" rx="0.943769" fill="#BDBDBD"/>
<rect x="61.345" y="83.9955" width="15.1003" height="1.88754" rx="0.943769" fill="#BDBDBD"/>
<rect x="61.345" y="87.7705" width="11.3252" height="1.88754" rx="0.943769" fill="#BDBDBD"/>
<rect x="61.3451" y="101.927" width="20.7629" height="1.88754" rx="0.943769" fill="#BDBDBD"/>
<rect x="61.345" y="105.702" width="15.1003" height="1.88754" rx="0.943769" fill="#BDBDBD"/>
<rect x="61.345" y="109.477" width="11.3252" height="1.88754" rx="0.943769" fill="#BDBDBD"/>
<rect x="122.691" y="52.8511" width="49.076" height="73.614" rx="4.71884" fill="#FEFEFE"/>
<circle cx="135.433" cy="65.592" r="6.1345" fill="#BDBDBD"/>
<rect x="145.343" y="60.8732" width="20.7629" height="1.88754" rx="0.943769" fill="#BDBDBD"/>
<rect x="145.343" y="64.6483" width="15.1003" height="1.88754" rx="0.943769" fill="#BDBDBD"/>
<rect x="145.343" y="68.4233" width="11.3252" height="1.88754" rx="0.943769" fill="#BDBDBD"/>
<rect x="130.24" y="80.2207" width="20.7629" height="1.88754" rx="0.943769" fill="#BDBDBD"/>
<rect x="130.24" y="83.9958" width="15.1003" height="1.88754" rx="0.943769" fill="#BDBDBD"/>
<rect x="130.24" y="87.7709" width="11.3252" height="1.88754" rx="0.943769" fill="#BDBDBD"/>
<rect x="130.24" y="101.927" width="20.7629" height="1.88754" rx="0.943769" fill="#BDBDBD"/>
<rect x="130.24" y="105.702" width="15.1003" height="1.88754" rx="0.943769" fill="#BDBDBD"/>
<rect x="130.24" y="109.477" width="11.3252" height="1.88754" rx="0.943769" fill="#BDBDBD"/>
<rect x="191.585" y="52.8511" width="49.076" height="73.614" rx="4.71884" fill="#FEFEFE"/>
<circle cx="204.327" cy="65.592" r="6.1345" fill="#BDBDBD"/>
<rect x="214.237" y="60.8732" width="20.7629" height="1.88754" rx="0.943769" fill="#BDBDBD"/>
<rect x="214.237" y="64.6482" width="15.1003" height="1.88754" rx="0.943769" fill="#BDBDBD"/>
<rect x="214.237" y="68.4233" width="11.3252" height="1.88754" rx="0.943769" fill="#BDBDBD"/>
<rect x="199.136" y="80.2207" width="20.7629" height="1.88754" rx="0.943769" fill="#BDBDBD"/>
<rect x="199.136" y="83.9958" width="15.1003" height="1.88754" rx="0.943769" fill="#BDBDBD"/>
<rect x="199.136" y="87.7708" width="11.3252" height="1.88754" rx="0.943769" fill="#BDBDBD"/>
<rect x="199.136" y="101.927" width="20.7629" height="1.88754" rx="0.943769" fill="#BDBDBD"/>
<rect x="199.136" y="105.702" width="15.1003" height="1.88754" rx="0.943769" fill="#BDBDBD"/>
<rect x="199.136" y="109.477" width="11.3252" height="1.88754" rx="0.943769" fill="#BDBDBD"/>
<g filter="url(#filter3_di_12994_46788)">
<rect x="12.269" y="250.047" width="154.778" height="29.2568" rx="14.6284" fill="#F7F6FD" shape-rendering="crispEdges"/>
<g clip-path="url(#clip0_12994_46788)">
<path d="M30.7821 263.876C30.7821 263.645 30.7821 263.53 30.8169 263.427C30.918 263.127 31.1844 263.011 31.4513 262.89C31.7514 262.753 31.9015 262.685 32.0501 262.673C32.2189 262.659 32.388 262.695 32.5322 262.776C32.7235 262.884 32.8569 263.088 32.9934 263.254C33.6241 264.02 33.9394 264.403 34.0548 264.825C34.1479 265.166 34.1479 265.522 34.0548 265.863C33.8865 266.479 33.3548 266.995 32.9613 267.473C32.76 267.718 32.6593 267.84 32.5322 267.911C32.388 267.992 32.2189 268.029 32.0501 268.015C31.9015 268.003 31.7514 267.935 31.4513 267.798C31.1844 267.677 30.918 267.56 30.8169 267.261C30.7821 267.158 30.7821 267.043 30.7821 266.812V263.876Z" stroke="#7067E4" stroke-width="1.00275"/>
<path d="M24.097 263.876C24.097 263.585 24.0889 263.324 23.8537 263.119C23.7681 263.045 23.6547 262.993 23.4278 262.89C23.1277 262.753 22.9777 262.685 22.829 262.673C22.3829 262.637 22.143 262.941 21.8857 263.254C21.2551 264.02 20.9397 264.403 20.8244 264.825C20.7313 265.166 20.7313 265.522 20.8244 265.863C20.9927 266.479 21.5243 266.995 21.9179 267.473C22.1659 267.775 22.4029 268.05 22.829 268.015C22.9777 268.003 23.1277 267.935 23.4278 267.798C23.6547 267.695 23.7681 267.643 23.8537 267.569C24.0889 267.364 24.097 267.103 24.097 266.812V263.876Z" stroke="#7067E4" stroke-width="1.00275"/>
<path d="M22.76 262.67C22.76 260.455 24.8551 258.659 27.4395 258.659C30.024 258.659 32.1191 260.455 32.1191 262.67" stroke="#7067E4" stroke-width="1.00275" stroke-linecap="square" stroke-linejoin="round"/>
<path d="M32.1191 268.018V268.553C32.1191 269.734 30.9219 270.692 29.445 270.692H28.108" stroke="#7067E4" stroke-width="1.00275" stroke-linecap="round" stroke-linejoin="round"/>
</g>
<path d="M53.8634 262.569H52.6997C52.6309 262.234 52.5105 261.94 52.3385 261.687C52.1695 261.434 51.9631 261.221 51.7191 261.049C51.4782 260.874 51.2108 260.742 50.9168 260.655C50.6227 260.567 50.3162 260.523 49.9971 260.523C49.4153 260.523 48.8882 260.67 48.4159 260.964C47.9467 261.259 47.5729 261.692 47.2945 262.264C47.0192 262.837 46.8816 263.539 46.8816 264.371C46.8816 265.203 47.0192 265.905 47.2945 266.478C47.5729 267.05 47.9467 267.483 48.4159 267.777C48.8882 268.071 49.4153 268.218 49.9971 268.218C50.3162 268.218 50.6227 268.175 50.9168 268.087C51.2108 267.999 51.4782 267.87 51.7191 267.698C51.9631 267.522 52.1695 267.308 52.3385 267.055C52.5105 266.798 52.6309 266.504 52.6997 266.173H53.8634C53.7758 266.664 53.6162 267.103 53.3848 267.491C53.1533 267.879 52.8655 268.209 52.5214 268.481C52.1774 268.75 51.791 268.955 51.3625 269.096C50.9371 269.237 50.482 269.307 49.9971 269.307C49.1776 269.307 48.4488 269.107 47.8106 268.706C47.1725 268.306 46.6705 267.737 46.3045 266.998C45.9385 266.26 45.7555 265.384 45.7555 264.371C45.7555 263.357 45.9385 262.482 46.3045 261.743C46.6705 261.005 47.1725 260.436 47.8106 260.035C48.4488 259.635 49.1776 259.435 49.9971 259.435C50.482 259.435 50.9371 259.505 51.3625 259.646C51.791 259.787 52.1774 259.993 52.5214 260.265C52.8655 260.534 53.1533 260.863 53.3848 261.251C53.6162 261.635 53.7758 262.075 53.8634 262.569ZM60.1354 266.229V261.969H61.2428V269.176H60.1354V267.956H60.0604C59.8915 268.322 59.6287 268.633 59.2721 268.889C58.9155 269.143 58.4651 269.269 57.9208 269.269C57.4704 269.269 57.07 269.171 56.7196 268.974C56.3693 268.774 56.094 268.473 55.8938 268.073C55.6936 267.669 55.5935 267.161 55.5935 266.548V261.969H56.7009V266.473C56.7009 266.998 56.8479 267.418 57.1419 267.73C57.4391 268.043 57.8176 268.2 58.2774 268.2C58.5527 268.2 58.8326 268.129 59.1173 267.988C59.405 267.848 59.6459 267.632 59.8398 267.341C60.0369 267.05 60.1354 266.679 60.1354 266.229ZM68.3758 263.583L67.3811 263.864C67.3185 263.698 67.2263 263.537 67.1043 263.381C66.9854 263.221 66.8228 263.09 66.6163 262.987C66.4099 262.884 66.1455 262.832 65.8234 262.832C65.3823 262.832 65.0148 262.934 64.7207 263.137C64.4298 263.337 64.2844 263.592 64.2844 263.902C64.2844 264.177 64.3845 264.394 64.5847 264.554C64.7849 264.713 65.0977 264.846 65.5231 264.953L66.5928 265.215C67.2372 265.372 67.7174 265.611 68.0333 265.933C68.3492 266.252 68.5072 266.664 68.5072 267.167C68.5072 267.58 68.3883 267.949 68.1506 268.275C67.916 268.6 67.5876 268.856 67.1653 269.044C66.743 269.232 66.2519 269.326 65.692 269.326C64.9569 269.326 64.3485 269.166 63.8668 268.847C63.3851 268.528 63.0801 268.062 62.9518 267.449L64.0028 267.186C64.1029 267.574 64.2922 267.865 64.5706 268.059C64.8521 268.253 65.2196 268.35 65.6732 268.35C66.1893 268.35 66.5991 268.24 66.9025 268.021C67.2091 267.799 67.3623 267.533 67.3623 267.224C67.3623 266.973 67.2748 266.764 67.0996 266.595C66.9244 266.423 66.6554 266.295 66.2926 266.21L65.0914 265.929C64.4314 265.772 63.9465 265.53 63.6369 265.201C63.3303 264.87 63.177 264.455 63.177 263.958C63.177 263.551 63.2912 263.192 63.5196 262.879C63.751 262.566 64.0654 262.32 64.4627 262.142C64.8631 261.964 65.3166 261.875 65.8234 261.875C66.5365 261.875 67.0965 262.031 67.5031 262.344C67.9129 262.657 68.2038 263.07 68.3758 263.583ZM73.3083 261.969V262.907H69.5735V261.969H73.3083ZM70.662 260.242H71.7693V267.111C71.7693 267.424 71.8147 267.658 71.9054 267.815C71.9992 267.968 72.1181 268.071 72.262 268.125C72.409 268.175 72.5639 268.2 72.7265 268.2C72.8485 268.2 72.9486 268.193 73.0268 268.181C73.105 268.165 73.1676 268.153 73.2145 268.143L73.4397 269.138C73.3646 269.166 73.2598 269.194 73.1253 269.222C72.9908 269.254 72.8203 269.269 72.6139 269.269C72.3011 269.269 71.9946 269.202 71.6943 269.068C71.3971 268.933 71.15 268.728 70.9529 268.453C70.759 268.178 70.662 267.83 70.662 267.411V260.242ZM77.8244 269.326C77.1738 269.326 76.6029 269.171 76.1118 268.861C75.6238 268.551 75.2422 268.118 74.967 267.561C74.6948 267.005 74.5587 266.354 74.5587 265.61C74.5587 264.859 74.6948 264.204 74.967 263.644C75.2422 263.084 75.6238 262.649 76.1118 262.339C76.6029 262.03 77.1738 261.875 77.8244 261.875C78.475 261.875 79.0443 262.03 79.5323 262.339C80.0234 262.649 80.405 263.084 80.6772 263.644C80.9524 264.204 81.0901 264.859 81.0901 265.61C81.0901 266.354 80.9524 267.005 80.6772 267.561C80.405 268.118 80.0234 268.551 79.5323 268.861C79.0443 269.171 78.475 269.326 77.8244 269.326ZM77.8244 268.331C78.3186 268.331 78.7253 268.204 79.0443 267.951C79.3634 267.698 79.5996 267.364 79.7528 266.952C79.9061 266.539 79.9827 266.091 79.9827 265.61C79.9827 265.128 79.9061 264.679 79.7528 264.263C79.5996 263.847 79.3634 263.511 79.0443 263.254C78.7253 262.998 78.3186 262.869 77.8244 262.869C77.3302 262.869 76.9235 262.998 76.6045 263.254C76.2854 263.511 76.0493 263.847 75.896 264.263C75.7427 264.679 75.6661 265.128 75.6661 265.61C75.6661 266.091 75.7427 266.539 75.896 266.952C76.0493 267.364 76.2854 267.698 76.6045 267.951C76.9235 268.204 77.3302 268.331 77.8244 268.331ZM82.7804 269.176V261.969H83.8501V263.095H83.944C84.0941 262.71 84.3366 262.411 84.6713 262.198C85.006 261.983 85.4079 261.875 85.8771 261.875C86.3526 261.875 86.7483 261.983 87.0642 262.198C87.3832 262.411 87.6319 262.71 87.8102 263.095H87.8853C88.0698 262.722 88.3467 262.427 88.7158 262.208C89.0849 261.986 89.5275 261.875 90.0436 261.875C90.688 261.875 91.2151 262.076 91.6248 262.48C92.0346 262.88 92.2395 263.504 92.2395 264.352V269.176H91.1322V264.352C91.1322 263.82 90.9867 263.44 90.6958 263.212C90.4049 262.984 90.0624 262.869 89.6683 262.869C89.1615 262.869 88.769 263.023 88.4906 263.329C88.2122 263.633 88.073 264.017 88.073 264.484V269.176H86.9469V264.24C86.9469 263.83 86.8139 263.5 86.5481 263.249C86.2822 262.996 85.9397 262.869 85.5205 262.869C85.2327 262.869 84.9637 262.946 84.7135 263.099C84.4664 263.253 84.2662 263.465 84.1129 263.737C83.9628 264.006 83.8877 264.318 83.8877 264.671V269.176H82.7804ZM97.2858 269.326C96.5914 269.326 95.9923 269.172 95.4887 268.866C94.9882 268.556 94.6019 268.125 94.3298 267.571C94.0608 267.014 93.9263 266.367 93.9263 265.628C93.9263 264.89 94.0608 264.24 94.3298 263.676C94.6019 263.11 94.9804 262.669 95.4653 262.353C95.9532 262.034 96.5225 261.875 97.1732 261.875C97.5485 261.875 97.9192 261.937 98.2852 262.062C98.6512 262.188 98.9843 262.391 99.2846 262.672C99.5849 262.951 99.8242 263.32 100.002 263.78C100.181 264.24 100.27 264.806 100.27 265.478V265.947H94.7145V264.99H99.1438C99.1438 264.584 99.0625 264.221 98.8998 263.902C98.7403 263.583 98.512 263.331 98.2148 263.146C97.9208 262.962 97.5736 262.869 97.1732 262.869C96.7321 262.869 96.3505 262.979 96.0283 263.198C95.7093 263.414 95.4637 263.695 95.2917 264.042C95.1196 264.39 95.0336 264.762 95.0336 265.159V265.797C95.0336 266.342 95.1274 266.803 95.3151 267.181C95.5059 267.557 95.7703 267.843 96.1081 268.04C96.4459 268.234 96.8385 268.331 97.2858 268.331C97.5767 268.331 97.8394 268.29 98.074 268.209C98.3118 268.125 98.5167 267.999 98.6887 267.834C98.8607 267.665 98.9937 267.455 99.0875 267.205L100.157 267.505C100.045 267.868 99.8555 268.187 99.5896 268.462C99.3237 268.734 98.9952 268.947 98.6042 269.1C98.2132 269.251 97.7738 269.326 97.2858 269.326ZM101.954 269.176V261.969H103.024V263.057H103.099C103.231 262.701 103.468 262.411 103.812 262.189C104.156 261.967 104.544 261.856 104.976 261.856C105.057 261.856 105.159 261.858 105.281 261.861C105.403 261.864 105.495 261.868 105.558 261.875V263.001C105.52 262.991 105.434 262.977 105.3 262.959C105.168 262.937 105.029 262.926 104.882 262.926C104.532 262.926 104.219 262.999 103.944 263.146C103.672 263.29 103.456 263.49 103.296 263.747C103.14 264 103.062 264.29 103.062 264.615V269.176H101.954ZM115.992 261.969C115.935 261.493 115.707 261.124 115.307 260.861C114.906 260.599 114.415 260.467 113.833 260.467C113.408 260.467 113.036 260.536 112.717 260.674C112.401 260.811 112.154 261 111.975 261.241C111.8 261.482 111.713 261.756 111.713 262.062C111.713 262.319 111.774 262.539 111.896 262.724C112.021 262.905 112.18 263.057 112.374 263.179C112.568 263.298 112.771 263.397 112.984 263.475C113.197 263.55 113.392 263.611 113.571 263.658L114.547 263.92C114.797 263.986 115.075 264.077 115.382 264.193C115.691 264.308 115.987 264.466 116.269 264.666C116.553 264.864 116.788 265.117 116.972 265.427C117.157 265.736 117.249 266.116 117.249 266.567C117.249 267.086 117.113 267.555 116.841 267.974C116.572 268.394 116.178 268.727 115.659 268.974C115.142 269.221 114.515 269.344 113.777 269.344C113.089 269.344 112.493 269.233 111.989 269.011C111.489 268.789 111.095 268.48 110.807 268.082C110.522 267.685 110.361 267.224 110.324 266.698H111.525C111.556 267.061 111.678 267.361 111.891 267.599C112.107 267.834 112.379 268.009 112.707 268.125C113.039 268.237 113.395 268.293 113.777 268.293C114.221 268.293 114.62 268.221 114.974 268.078C115.327 267.931 115.607 267.727 115.813 267.468C116.02 267.205 116.123 266.898 116.123 266.548C116.123 266.229 116.034 265.969 115.856 265.769C115.677 265.569 115.443 265.406 115.152 265.281C114.861 265.156 114.547 265.047 114.209 264.953L113.026 264.615C112.276 264.399 111.681 264.091 111.243 263.691C110.805 263.29 110.587 262.766 110.587 262.119C110.587 261.581 110.732 261.111 111.023 260.711C111.317 260.308 111.711 259.995 112.205 259.773C112.703 259.547 113.258 259.435 113.871 259.435C114.49 259.435 115.041 259.546 115.523 259.768C116.004 259.987 116.386 260.287 116.667 260.669C116.952 261.05 117.102 261.484 117.118 261.969H115.992ZM123.554 266.229V261.969H124.661V269.176H123.554V267.956H123.479C123.31 268.322 123.047 268.633 122.691 268.889C122.334 269.143 121.884 269.269 121.339 269.269C120.889 269.269 120.489 269.171 120.138 268.974C119.788 268.774 119.513 268.473 119.313 268.073C119.112 267.669 119.012 267.161 119.012 266.548V261.969H120.12V266.473C120.12 266.998 120.267 267.418 120.561 267.73C120.858 268.043 121.236 268.2 121.696 268.2C121.971 268.2 122.251 268.129 122.536 267.988C122.824 267.848 123.065 267.632 123.259 267.341C123.456 267.05 123.554 266.679 123.554 266.229ZM126.69 271.878V261.969H127.759V263.113H127.891C127.972 262.988 128.085 262.829 128.229 262.635C128.376 262.438 128.585 262.263 128.857 262.109C129.133 261.953 129.505 261.875 129.974 261.875C130.581 261.875 131.116 262.026 131.579 262.33C132.042 262.633 132.403 263.063 132.663 263.62C132.922 264.177 133.052 264.834 133.052 265.591C133.052 266.354 132.922 267.016 132.663 267.576C132.403 268.132 132.043 268.564 131.583 268.871C131.124 269.174 130.593 269.326 129.993 269.326C129.53 269.326 129.159 269.249 128.881 269.096C128.602 268.939 128.388 268.763 128.238 268.566C128.088 268.365 127.972 268.2 127.891 268.068H127.797V271.878H126.69ZM127.778 265.572C127.778 266.116 127.858 266.596 128.017 267.013C128.177 267.425 128.41 267.749 128.717 267.984C129.023 268.215 129.398 268.331 129.843 268.331C130.306 268.331 130.692 268.209 131.002 267.965C131.314 267.718 131.549 267.386 131.705 266.97C131.865 266.551 131.945 266.085 131.945 265.572C131.945 265.065 131.866 264.609 131.71 264.202C131.557 263.792 131.324 263.468 131.011 263.231C130.701 262.99 130.312 262.869 129.843 262.869C129.392 262.869 129.014 262.984 128.707 263.212C128.401 263.437 128.169 263.753 128.013 264.16C127.856 264.563 127.778 265.034 127.778 265.572ZM134.741 271.878V261.969H135.811V263.113H135.942C136.024 262.988 136.136 262.829 136.28 262.635C136.427 262.438 136.637 262.263 136.909 262.109C137.184 261.953 137.556 261.875 138.026 261.875C138.632 261.875 139.167 262.026 139.63 262.33C140.093 262.633 140.454 263.063 140.714 263.62C140.974 264.177 141.104 264.834 141.104 265.591C141.104 266.354 140.974 267.016 140.714 267.576C140.454 268.132 140.095 268.564 139.635 268.871C139.175 269.174 138.645 269.326 138.044 269.326C137.581 269.326 137.211 269.249 136.932 269.096C136.654 268.939 136.44 268.763 136.289 268.566C136.139 268.365 136.024 268.2 135.942 268.068H135.848V271.878H134.741ZM135.83 265.572C135.83 266.116 135.909 266.596 136.069 267.013C136.228 267.425 136.462 267.749 136.768 267.984C137.075 268.215 137.45 268.331 137.894 268.331C138.357 268.331 138.743 268.209 139.053 267.965C139.366 267.718 139.6 267.386 139.757 266.97C139.916 266.551 139.996 266.085 139.996 265.572C139.996 265.065 139.918 264.609 139.762 264.202C139.608 263.792 139.375 263.468 139.062 263.231C138.753 262.99 138.363 262.869 137.894 262.869C137.444 262.869 137.065 262.984 136.759 263.212C136.452 263.437 136.221 263.753 136.064 264.16C135.908 264.563 135.83 265.034 135.83 265.572ZM145.72 269.326C145.07 269.326 144.499 269.171 144.008 268.861C143.52 268.551 143.138 268.118 142.863 267.561C142.591 267.005 142.455 266.354 142.455 265.61C142.455 264.859 142.591 264.204 142.863 263.644C143.138 263.084 143.52 262.649 144.008 262.339C144.499 262.03 145.07 261.875 145.72 261.875C146.371 261.875 146.94 262.03 147.428 262.339C147.919 262.649 148.301 263.084 148.573 263.644C148.848 264.204 148.986 264.859 148.986 265.61C148.986 266.354 148.848 267.005 148.573 267.561C148.301 268.118 147.919 268.551 147.428 268.861C146.94 269.171 146.371 269.326 145.72 269.326ZM145.72 268.331C146.215 268.331 146.621 268.204 146.94 267.951C147.259 267.698 147.496 267.364 147.649 266.952C147.802 266.539 147.879 266.091 147.879 265.61C147.879 265.128 147.802 264.679 147.649 264.263C147.496 263.847 147.259 263.511 146.94 263.254C146.621 262.998 146.215 262.869 145.72 262.869C145.226 262.869 144.82 262.998 144.501 263.254C144.181 263.511 143.945 263.847 143.792 264.263C143.639 264.679 143.562 265.128 143.562 265.61C143.562 266.091 143.639 266.539 143.792 266.952C143.945 267.364 144.181 267.698 144.501 267.951C144.82 268.204 145.226 268.331 145.72 268.331ZM150.676 269.176V261.969H151.746V263.057H151.821C151.953 262.701 152.19 262.411 152.534 262.189C152.879 261.967 153.266 261.856 153.698 261.856C153.779 261.856 153.881 261.858 154.003 261.861C154.125 261.864 154.217 261.868 154.28 261.875V263.001C154.242 262.991 154.156 262.977 154.022 262.959C153.89 262.937 153.751 262.926 153.604 262.926C153.254 262.926 152.941 262.999 152.666 263.146C152.394 263.29 152.178 263.49 152.018 263.747C151.862 264 151.784 264.29 151.784 264.615V269.176H150.676ZM159.178 261.969V262.907H155.444V261.969H159.178ZM156.532 260.242H157.639V267.111C157.639 267.424 157.685 267.658 157.775 267.815C157.869 267.968 157.988 268.071 158.132 268.125C158.279 268.175 158.434 268.2 158.597 268.2C158.719 268.2 158.819 268.193 158.897 268.181C158.975 268.165 159.038 268.153 159.085 268.143L159.31 269.138C159.235 269.166 159.13 269.194 158.995 269.222C158.861 269.254 158.69 269.269 158.484 269.269C158.171 269.269 157.865 269.202 157.564 269.068C157.267 268.933 157.02 268.728 156.823 268.453C156.629 268.178 156.532 267.83 156.532 267.411V260.242Z" fill="#7067E4"/>
</g>
<g filter="url(#filter4_di_12994_46788)">
<rect x="176.485" y="250.047" width="107.59" height="29.2568" rx="14.6284" fill="#FEF8F6" shape-rendering="crispEdges"/>
<ellipse cx="198.071" cy="263.339" rx="2.67401" ry="5.34802" stroke="#DF6C43" stroke-width="1.00275"/>
<path d="M198.072 257.99C195.997 257.99 191.697 259.58 189.228 260.567C188.097 261.019 187.375 262.121 187.375 263.339C187.375 264.556 188.097 265.658 189.228 266.11C191.697 267.097 195.997 268.687 198.072 268.687" stroke="#DF6C43" stroke-width="1.00275"/>
<path d="M193.392 271.361L192.093 270.646C190.678 269.867 189.88 268.294 190.08 266.681" stroke="#DF6C43" stroke-width="1.00275" stroke-linecap="round" stroke-linejoin="round"/>
<path d="M212.978 259.566H214.367L217.633 267.543H217.745L221.011 259.566H222.4V269.176H221.311V261.875H221.217L218.214 269.176H217.163L214.161 261.875H214.067V269.176H212.978V259.566ZM226.703 269.344C226.247 269.344 225.832 269.258 225.46 269.086C225.088 268.911 224.792 268.659 224.573 268.331C224.354 267.999 224.245 267.599 224.245 267.13C224.245 266.717 224.326 266.382 224.489 266.126C224.652 265.866 224.869 265.663 225.141 265.516C225.413 265.369 225.713 265.259 226.042 265.187C226.373 265.112 226.707 265.053 227.041 265.009C227.479 264.953 227.834 264.91 228.106 264.882C228.382 264.851 228.582 264.799 228.707 264.727C228.835 264.656 228.899 264.53 228.899 264.352V264.315C228.899 263.852 228.773 263.492 228.519 263.235C228.269 262.979 227.889 262.851 227.379 262.851C226.851 262.851 226.436 262.966 226.136 263.198C225.835 263.429 225.624 263.676 225.502 263.939L224.451 263.564C224.639 263.126 224.889 262.785 225.202 262.541C225.518 262.294 225.862 262.122 226.234 262.025C226.61 261.925 226.979 261.875 227.342 261.875C227.573 261.875 227.839 261.903 228.139 261.959C228.443 262.012 228.735 262.123 229.017 262.292C229.301 262.461 229.537 262.716 229.725 263.057C229.913 263.398 230.007 263.855 230.007 264.427V269.176H228.899V268.2H228.843C228.768 268.356 228.643 268.523 228.468 268.702C228.293 268.88 228.059 269.032 227.769 269.157C227.478 269.282 227.123 269.344 226.703 269.344ZM226.872 268.35C227.31 268.35 227.679 268.264 227.98 268.092C228.283 267.92 228.511 267.698 228.665 267.425C228.821 267.153 228.899 266.867 228.899 266.567V265.553C228.852 265.61 228.749 265.661 228.59 265.708C228.433 265.752 228.252 265.791 228.045 265.825C227.842 265.857 227.643 265.885 227.45 265.91C227.259 265.932 227.104 265.951 226.985 265.966C226.697 266.004 226.428 266.065 226.178 266.149C225.931 266.231 225.731 266.354 225.577 266.52C225.427 266.683 225.352 266.905 225.352 267.186C225.352 267.571 225.495 267.862 225.779 268.059C226.067 268.253 226.431 268.35 226.872 268.35ZM232.028 269.176V261.969H233.098V263.057H233.173C233.304 262.701 233.542 262.411 233.886 262.189C234.23 261.967 234.618 261.856 235.049 261.856C235.131 261.856 235.232 261.858 235.354 261.861C235.476 261.864 235.569 261.868 235.631 261.875V263.001C235.594 262.991 235.508 262.977 235.373 262.959C235.242 262.937 235.103 262.926 234.956 262.926C234.605 262.926 234.292 262.999 234.017 263.146C233.745 263.29 233.529 263.49 233.37 263.747C233.213 264 233.135 264.29 233.135 264.615V269.176H232.028ZM237.976 266.548L237.957 265.178H238.183L241.336 261.969H242.706L239.346 265.366H239.252L237.976 266.548ZM236.944 269.176V259.566H238.051V269.176H236.944ZM241.523 269.176L238.708 265.61L239.496 264.84L242.931 269.176H241.523ZM246.856 269.326C246.161 269.326 245.562 269.172 245.059 268.866C244.558 268.556 244.172 268.125 243.9 267.571C243.631 267.014 243.496 266.367 243.496 265.628C243.496 264.89 243.631 264.24 243.9 263.676C244.172 263.11 244.55 262.669 245.035 262.353C245.523 262.034 246.093 261.875 246.743 261.875C247.119 261.875 247.489 261.937 247.855 262.062C248.221 262.188 248.554 262.391 248.855 262.672C249.155 262.951 249.394 263.32 249.572 263.78C249.751 264.24 249.84 264.806 249.84 265.478V265.947H244.285V264.99H248.714C248.714 264.584 248.632 264.221 248.47 263.902C248.31 263.583 248.082 263.331 247.785 263.146C247.491 262.962 247.144 262.869 246.743 262.869C246.302 262.869 245.921 262.979 245.598 263.198C245.279 263.414 245.034 263.695 244.862 264.042C244.69 264.39 244.604 264.762 244.604 265.159V265.797C244.604 266.342 244.697 266.803 244.885 267.181C245.076 267.557 245.34 267.843 245.678 268.04C246.016 268.234 246.408 268.331 246.856 268.331C247.147 268.331 247.409 268.29 247.644 268.209C247.882 268.125 248.087 267.999 248.259 267.834C248.431 267.665 248.564 267.455 248.658 267.205L249.727 267.505C249.615 267.868 249.425 268.187 249.16 268.462C248.894 268.734 248.565 268.947 248.174 269.1C247.783 269.251 247.344 269.326 246.856 269.326ZM254.659 261.969V262.907H250.924V261.969H254.659ZM252.012 260.242H253.12V267.111C253.12 267.424 253.165 267.658 253.256 267.815C253.35 267.968 253.468 268.071 253.612 268.125C253.759 268.175 253.914 268.2 254.077 268.2C254.199 268.2 254.299 268.193 254.377 268.181C254.455 268.165 254.518 268.153 254.565 268.143L254.79 269.138C254.715 269.166 254.61 269.194 254.476 269.222C254.341 269.254 254.171 269.269 253.964 269.269C253.651 269.269 253.345 269.202 253.045 269.068C252.747 268.933 252.5 268.728 252.303 268.453C252.109 268.178 252.012 267.83 252.012 267.411V260.242ZM256.324 269.176V261.969H257.432V269.176H256.324ZM256.887 260.767C256.672 260.767 256.485 260.694 256.329 260.547C256.176 260.4 256.099 260.223 256.099 260.017C256.099 259.81 256.176 259.634 256.329 259.486C256.485 259.339 256.672 259.266 256.887 259.266C257.103 259.266 257.288 259.339 257.441 259.486C257.597 259.634 257.676 259.81 257.676 260.017C257.676 260.223 257.597 260.4 257.441 260.547C257.288 260.694 257.103 260.767 256.887 260.767ZM260.567 264.84V269.176H259.46V261.969H260.53V263.095H260.623C260.792 262.729 261.049 262.435 261.393 262.213C261.737 261.987 262.181 261.875 262.725 261.875C263.213 261.875 263.64 261.975 264.006 262.175C264.372 262.372 264.657 262.672 264.86 263.076C265.064 263.476 265.165 263.983 265.165 264.596V269.176H264.058V264.671C264.058 264.105 263.911 263.664 263.617 263.348C263.323 263.029 262.919 262.869 262.406 262.869C262.053 262.869 261.737 262.946 261.459 263.099C261.183 263.253 260.966 263.476 260.806 263.77C260.647 264.064 260.567 264.421 260.567 264.84ZM270.098 272.028C269.563 272.028 269.103 271.959 268.718 271.822C268.334 271.687 268.013 271.509 267.756 271.287C267.503 271.068 267.301 270.833 267.151 270.583L268.033 269.964C268.133 270.095 268.26 270.245 268.413 270.414C268.567 270.586 268.776 270.735 269.042 270.86C269.311 270.988 269.663 271.052 270.098 271.052C270.68 271.052 271.16 270.912 271.538 270.63C271.917 270.349 272.106 269.907 272.106 269.307V267.843H272.012C271.931 267.974 271.815 268.137 271.665 268.331C271.518 268.522 271.305 268.692 271.027 268.842C270.752 268.989 270.379 269.063 269.91 269.063C269.328 269.063 268.806 268.925 268.343 268.65C267.883 268.375 267.519 267.974 267.25 267.449C266.984 266.923 266.851 266.285 266.851 265.535C266.851 264.796 266.981 264.153 267.24 263.606C267.5 263.056 267.861 262.63 268.324 262.33C268.787 262.026 269.322 261.875 269.929 261.875C270.398 261.875 270.77 261.953 271.046 262.109C271.324 262.263 271.537 262.438 271.684 262.635C271.834 262.829 271.95 262.988 272.031 263.113H272.143V261.969H273.213V269.382C273.213 270.001 273.073 270.505 272.791 270.893C272.513 271.284 272.137 271.57 271.665 271.751C271.196 271.936 270.673 272.028 270.098 272.028ZM270.06 268.068C270.504 268.068 270.88 267.967 271.186 267.763C271.493 267.56 271.726 267.267 271.885 266.886C272.045 266.504 272.125 266.048 272.125 265.516C272.125 264.996 272.047 264.538 271.89 264.141C271.734 263.744 271.502 263.432 271.196 263.207C270.889 262.982 270.511 262.869 270.06 262.869C269.591 262.869 269.2 262.988 268.887 263.226C268.578 263.464 268.345 263.783 268.188 264.183C268.035 264.584 267.958 265.028 267.958 265.516C267.958 266.016 268.036 266.459 268.193 266.844C268.352 267.225 268.587 267.526 268.897 267.744C269.209 267.96 269.597 268.068 270.06 268.068Z" fill="#DF6C43"/>
</g>
<path d="M103 91H122" stroke="black" stroke-opacity="0.06" stroke-dasharray="2 2"/>
<path d="M172.269 91H192.269" stroke="black" stroke-opacity="0.06" stroke-dasharray="2 2"/>
<defs>
<filter id="filter0_di_12994_46788" x="12.269" y="11.3252" width="269.64" height="156.389" filterUnits="userSpaceOnUse" color-interpolation-filters="sRGB">
<feFlood flood-opacity="0" result="BackgroundImageFix"/>
<feColorMatrix in="SourceAlpha" type="matrix" values="0 0 0 0 0 0 0 0 0 0 0 0 0 0 0 0 0 0 127 0" result="hardAlpha"/>
<feOffset dy="0.666667"/>
<feComposite in2="hardAlpha" operator="out"/>
<feColorMatrix type="matrix" values="0 0 0 0 1 0 0 0 0 1 0 0 0 0 1 0 0 0 1 0"/>
<feBlend mode="normal" in2="BackgroundImageFix" result="effect1_dropShadow_12994_46788"/>
<feBlend mode="normal" in="SourceGraphic" in2="effect1_dropShadow_12994_46788" result="shape"/>
<feColorMatrix in="SourceAlpha" type="matrix" values="0 0 0 0 0 0 0 0 0 0 0 0 0 0 0 0 0 0 127 0" result="hardAlpha"/>
<feOffset dy="0.666667"/>
<feComposite in2="hardAlpha" operator="arithmetic" k2="-1" k3="1"/>
<feColorMatrix type="matrix" values="0 0 0 0 0 0 0 0 0 0 0 0 0 0 0 0 0 0 0.15 0"/>
<feBlend mode="normal" in2="shape" result="effect2_innerShadow_12994_46788"/>
</filter>
<filter id="filter1_di_12994_46788" x="12.269" y="206.047" width="265" height="12.6667" filterUnits="userSpaceOnUse" color-interpolation-filters="sRGB">
<feFlood flood-opacity="0" result="BackgroundImageFix"/>
<feColorMatrix in="SourceAlpha" type="matrix" values="0 0 0 0 0 0 0 0 0 0 0 0 0 0 0 0 0 0 127 0" result="hardAlpha"/>
<feOffset dy="0.666667"/>
<feComposite in2="hardAlpha" operator="out"/>
<feColorMatrix type="matrix" values="0 0 0 0 1 0 0 0 0 1 0 0 0 0 1 0 0 0 1 0"/>
<feBlend mode="normal" in2="BackgroundImageFix" result="effect1_dropShadow_12994_46788"/>
<feBlend mode="normal" in="SourceGraphic" in2="effect1_dropShadow_12994_46788" result="shape"/>
<feColorMatrix in="SourceAlpha" type="matrix" values="0 0 0 0 0 0 0 0 0 0 0 0 0 0 0 0 0 0 127 0" result="hardAlpha"/>
<feOffset dy="0.666667"/>
<feComposite in2="hardAlpha" operator="arithmetic" k2="-1" k3="1"/>
<feColorMatrix type="matrix" values="0 0 0 0 0 0 0 0 0 0 0 0 0 0 0 0 0 0 0.15 0"/>
<feBlend mode="normal" in2="shape" result="effect2_innerShadow_12994_46788"/>
</filter>
<filter id="filter2_di_12994_46788" x="12.269" y="226.047" width="212" height="12.6667" filterUnits="userSpaceOnUse" color-interpolation-filters="sRGB">
<feFlood flood-opacity="0" result="BackgroundImageFix"/>
<feColorMatrix in="SourceAlpha" type="matrix" values="0 0 0 0 0 0 0 0 0 0 0 0 0 0 0 0 0 0 127 0" result="hardAlpha"/>
<feOffset dy="0.666667"/>
<feComposite in2="hardAlpha" operator="out"/>
<feColorMatrix type="matrix" values="0 0 0 0 1 0 0 0 0 1 0 0 0 0 1 0 0 0 1 0"/>
<feBlend mode="normal" in2="BackgroundImageFix" result="effect1_dropShadow_12994_46788"/>
<feBlend mode="normal" in="SourceGraphic" in2="effect1_dropShadow_12994_46788" result="shape"/>
<feColorMatrix in="SourceAlpha" type="matrix" values="0 0 0 0 0 0 0 0 0 0 0 0 0 0 0 0 0 0 127 0" result="hardAlpha"/>
<feOffset dy="0.666667"/>
<feComposite in2="hardAlpha" operator="arithmetic" k2="-1" k3="1"/>
<feColorMatrix type="matrix" values="0 0 0 0 0 0 0 0 0 0 0 0 0 0 0 0 0 0 0.15 0"/>
<feBlend mode="normal" in2="shape" result="effect2_innerShadow_12994_46788"/>
</filter>
<filter id="filter3_di_12994_46788" x="12.269" y="250.047" width="154.778" height="29.9235" filterUnits="userSpaceOnUse" color-interpolation-filters="sRGB">
<feFlood flood-opacity="0" result="BackgroundImageFix"/>
<feColorMatrix in="SourceAlpha" type="matrix" values="0 0 0 0 0 0 0 0 0 0 0 0 0 0 0 0 0 0 127 0" result="hardAlpha"/>
<feOffset dy="0.666667"/>
<feComposite in2="hardAlpha" operator="out"/>
<feColorMatrix type="matrix" values="0 0 0 0 1 0 0 0 0 1 0 0 0 0 1 0 0 0 1 0"/>
<feBlend mode="normal" in2="BackgroundImageFix" result="effect1_dropShadow_12994_46788"/>
<feBlend mode="normal" in="SourceGraphic" in2="effect1_dropShadow_12994_46788" result="shape"/>
<feColorMatrix in="SourceAlpha" type="matrix" values="0 0 0 0 0 0 0 0 0 0 0 0 0 0 0 0 0 0 127 0" result="hardAlpha"/>
<feOffset dy="0.666667"/>
<feComposite in2="hardAlpha" operator="arithmetic" k2="-1" k3="1"/>
<feColorMatrix type="matrix" values="0 0 0 0 0 0 0 0 0 0 0 0 0 0 0 0 0 0 0.15 0"/>
<feBlend mode="normal" in2="shape" result="effect2_innerShadow_12994_46788"/>
</filter>
<filter id="filter4_di_12994_46788" x="176.485" y="250.047" width="107.59" height="29.9235" filterUnits="userSpaceOnUse" color-interpolation-filters="sRGB">
<feFlood flood-opacity="0" result="BackgroundImageFix"/>
<feColorMatrix in="SourceAlpha" type="matrix" values="0 0 0 0 0 0 0 0 0 0 0 0 0 0 0 0 0 0 127 0" result="hardAlpha"/>
<feOffset dy="0.666667"/>
<feComposite in2="hardAlpha" operator="out"/>
<feColorMatrix type="matrix" values="0 0 0 0 1 0 0 0 0 1 0 0 0 0 1 0 0 0 1 0"/>
<feBlend mode="normal" in2="BackgroundImageFix" result="effect1_dropShadow_12994_46788"/>
<feBlend mode="normal" in="SourceGraphic" in2="effect1_dropShadow_12994_46788" result="shape"/>
<feColorMatrix in="SourceAlpha" type="matrix" values="0 0 0 0 0 0 0 0 0 0 0 0 0 0 0 0 0 0 127 0" result="hardAlpha"/>
<feOffset dy="0.666667"/>
<feComposite in2="hardAlpha" operator="arithmetic" k2="-1" k3="1"/>
<feColorMatrix type="matrix" values="0 0 0 0 0 0 0 0 0 0 0 0 0 0 0 0 0 0 0.15 0"/>
<feBlend mode="normal" in2="shape" result="effect2_innerShadow_12994_46788"/>
</filter>
<linearGradient id="paint0_linear_12994_46788" x1="147.089" y1="0" x2="147.089" y2="290.629" gradientUnits="userSpaceOnUse">
<stop stop-color="white"/>
<stop offset="1" stop-color="white" stop-opacity="0.6"/>
</linearGradient>
<clipPath id="clip0_12994_46788">
<rect width="16.0441" height="16.0441" fill="white" transform="translate(19.4172 256.654)"/>
</clipPath>
</defs>
</svg>
